<?xml version="1.0" encoding="UTF-8" standalone="no"?>
<!-- Created with Inkscape (http://www.inkscape.org/) -->

<svg
   version="1.1"
   id="svg1"
   width="666.66669"
   height="666.66669"
   viewBox="0 0 666.66669 666.66669"
   sodipodi:docname="VortexWhiteLogo.ai"
   xmlns:inkscape="http://www.inkscape.org/namespaces/inkscape"
   xmlns:sodipodi="http://sodipodi.sourceforge.net/DTD/sodipodi-0.dtd"
   xmlns="http://www.w3.org/2000/svg"
   xmlns:svg="http://www.w3.org/2000/svg">
  <defs
     id="defs1">
    <clipPath
       clipPathUnits="userSpaceOnUse"
       id="clipPath2">
      <path
         d="M 0,500 H 500 V 0 H 0 Z"
         transform="translate(-243.83091,-285.3402)"
         id="path2" />
    </clipPath>
  </defs>
  <sodipodi:namedview
     id="namedview1"
     pagecolor="#ffffff"
     bordercolor="#000000"
     borderopacity="0.25"
     inkscape:showpageshadow="2"
     inkscape:pageopacity="0.0"
     inkscape:pagecheckerboard="0"
     inkscape:deskcolor="#d1d1d1">
    <inkscape:page
       x="0"
       y="0"
       inkscape:label="1"
       id="page1"
       width="666.66669"
       height="666.66669"
       margin="5.9753065 5.5826669 5.9746666 5.5824533"
       bleed="0" />
  </sodipodi:namedview>
  <g
     id="layer-MC0"
     inkscape:groupmode="layer"
     inkscape:label="Layer 1">
    <path
       id="path1"
       d="M 0,0 C -36.771,-4.418 -37.911,-62.149 0.994,-65.641 52.925,-70.302 47.564,5.714 0,0 m -41.641,10.465 c 1.01,-0.147 0.56,1.289 0.433,1.862 -8.132,36.814 -6.535,68.602 9.187,103.244 21.823,48.084 70.944,83.919 124.85,82.879 C 27.631,172.934 -24.652,104.023 -13.03,31.637 l 5.135,16.316 c 25.868,68.778 100.271,108.974 172.378,91.67 6.732,-1.616 24.271,-7.202 29.35,-11.28 0.233,-0.188 1.313,-1.018 0.567,-1.149 C 123.031,137.973 46.425,98.412 18.434,31.353 c 0.293,-0.76 1.179,0.67 1.378,0.911 34.904,42.407 105.272,59.195 157.14,44.29 29.325,-8.426 59.121,-28.021 74.962,-54.372 0.231,-0.714 -0.142,-1.145 -0.844,-0.844 -0.867,0.371 -6,5.118 -7.545,6.193 C 190.457,64.459 119,64.916 64.84,30.155 58.44,26.048 52.671,21.125 46.484,16.748 c -0.132,-1.054 1.197,-0.5 1.733,-0.303 3.233,1.191 6.568,3.127 9.984,4.326 82.525,28.971 183.479,-25.891 191.84,-115.487 0.059,-0.631 0.675,-1.949 -0.403,-1.832 -10.818,25.8 -31.486,48.489 -54.191,64.555 -37.358,26.433 -85.983,38.37 -130.079,21.845 -0.136,-0.995 1.302,-0.539 1.993,-0.565 34.342,-1.296 61.538,-13.215 86.711,-36.331 40.322,-37.027 57.109,-93.899 40.615,-146.788 l -1.132,6.01 c -4.077,67.856 -51.838,137.045 -121.896,147.918 3.981,-2.802 8.098,-5.357 11.958,-8.351 61.1,-47.403 74.926,-138.99 25.795,-200.216 -2.16,-2.691 -9.017,-11.041 -11.421,-12.615 -0.4,-0.261 -0.977,-0.636 -1.15,0.007 1.021,0.98 1.64,2.251 2.203,3.519 26.212,58.996 19.931,138.584 -30.239,183.048 -1.468,1.302 -6.957,6.01 -8.315,6.566 -0.341,0.14 -0.969,0.105 -0.845,-0.275 9.199,-14.236 15.145,-30.978 18.128,-47.682 8.594,-48.118 -3.424,-94.644 -37.573,-129.737 -13.682,-14.06 -38.962,-31.137 -58.357,-34.926 -0.588,-0.115 -1.878,-0.749 -1.741,0.312 19.041,12.305 35.125,29.638 46.811,49.045 20.069,33.332 29.062,74.567 19.861,112.92 -1.832,7.634 -4.853,14.843 -7.168,22.306 -0.997,0.135 -0.539,-1.301 -0.566,-1.994 -0.213,-5.549 -0.013,-11.051 -0.577,-16.597 -7.751,-76.267 -83.48,-140.879 -160.919,-127.165 -2.949,0.522 -12.629,2.343 -14.766,3.547 -0.273,0.154 -0.735,0.736 -0.566,0.859 71.616,0.993 141.464,60.81 145.348,133.911 l -7.196,-13.111 c -19.233,-31.196 -55.573,-56.253 -91.22,-64.433 -43.862,-10.066 -92.886,1.54 -126.473,31.483 -0.089,0.438 0.53,0.353 0.842,0.273 5.204,-1.338 10.902,-3.937 16.324,-5.425 45.228,-12.415 89.288,-10.577 130.286,13.349 18.895,11.026 35.585,26.202 47.691,44.442 -0.601,0.981 -1.256,-0.243 -1.722,-0.567 -5.808,-4.03 -10.851,-8.004 -17.156,-11.457 -68.534,-37.537 -170.657,-11.138 -198.58,65.536 23.533,-26.658 56.928,-44.259 92.022,-50.178 30.301,-5.112 62.7,-1.283 90.728,11.345 3.702,1.668 8.091,3.767 11.24,6.209 -27.944,-6.081 -57.892,-2.016 -84.104,8.893 -53.281,22.175 -89.726,74.978 -86.426,133.602 1.619,0.292 0.941,-0.384 1.287,-1.255 1.702,-4.276 2.966,-8.787 4.726,-13.041 25.422,-61.438 85.229,-104.296 153.071,-100.72 -0.157,0.991 -1.14,0.995 -1.845,1.296 -8.115,3.469 -16.559,5.432 -24.86,9.477 -68.361,33.312 -95.354,118.559 -63.812,187.038 l 5.246,9.338 c -6.275,-30.025 -1.85,-62.669 8.579,-91.282 12.878,-35.331 40.213,-68.865 76.12,-82.103 -40.711,38.779 -51.164,102.004 -32.628,154.228 10.228,28.818 30.272,53.656 55.513,70.663 l -9.96,-14.354 C -65.744,161.183 -75.215,119.254 -69.594,78.94 -66.132,54.111 -55.471,31.07 -41.641,10.465"
       style="fill:#efefef;fill-opacity:1;fill-rule:nonzero;stroke:none"
       transform="matrix(1.3333333,0,0,-1.3333333,325.10787,286.21307)"
       clip-path="url(#clipPath2)" />
  </g>
</svg>
